<svg xmlns="http://www.w3.org/2000/svg" xmlns:xlink="http://www.w3.org/1999/xlink" xmlns:s="https://github.com/nturley/netlistsvg" width="1284" height="1305.5">
  <style>svg {
    stroke:#000;
    fill:none;
  }
  text {
    fill:#000;
    stroke:none;
    font-size:10px;
    font-weight: bold;
    font-family: "Courier New", monospace;
  }
  .nodelabel {
    text-anchor: middle;
  }
  .inputPortLabel {
    text-anchor: end;
  }
  .splitjoinBody {
    fill:#000;
  }</style>
  <g s:type="not" transform="translate(351,445)" s:width="30" s:height="20" id="cell_$abc$1033$auto$blifparse.cc:397:parse_blif$1034">
    <s:alias val="$_NOT_"/>
    <s:alias val="$not"/>
    <s:alias val="$logic_not"/>
    <path d="M0,0 L0,20 L20,10 Z" class="cell_$abc$1033$auto$blifparse.cc:397:parse_blif$1034"/>
    <circle cx="23" cy="10" r="3" class="cell_$abc$1033$auto$blifparse.cc:397:parse_blif$1034"/>
    <g s:x="0" s:y="10" s:pid="A"/>
    <g s:x="25" s:y="10" s:pid="Y"/>
  </g>
  <g s:type="not" transform="translate(917,64)" s:width="30" s:height="20" id="cell_$abc$1033$auto$blifparse.cc:397:parse_blif$1035">
    <s:alias val="$_NOT_"/>
    <s:alias val="$not"/>
    <s:alias val="$logic_not"/>
    <path d="M0,0 L0,20 L20,10 Z" class="cell_$abc$1033$auto$blifparse.cc:397:parse_blif$1035"/>
    <circle cx="23" cy="10" r="3" class="cell_$abc$1033$auto$blifparse.cc:397:parse_blif$1035"/>
    <g s:x="0" s:y="10" s:pid="A"/>
    <g s:x="25" s:y="10" s:pid="Y"/>
  </g>
  <g s:type="or" transform="translate(351,568)" s:width="30" s:height="25" id="cell_$abc$1033$auto$blifparse.cc:397:parse_blif$1036">
    <s:alias val="$or"/>
    <s:alias val="$logic_or"/>
    <s:alias val="$_OR_"/>
    <path d="M0,25 L0,25 L15,25 A15 12.5 0 0 0 15,0 L0,0" class="cell_$abc$1033$auto$blifparse.cc:397:parse_blif$1036"/>
    <path d="M0,0 A30 25 0 0 1 0,25" class="cell_$abc$1033$auto$blifparse.cc:397:parse_blif$1036"/>
    <g s:x="3" s:y="5" s:pid="A"/>
    <g s:x="3" s:y="20" s:pid="B"/>
    <g s:x="30" s:y="12.5" s:pid="Y"/>
  </g>
  <g s:type="not" transform="translate(788.5,189)" s:width="30" s:height="20" id="cell_$abc$1033$auto$blifparse.cc:397:parse_blif$1037">
    <s:alias val="$_NOT_"/>
    <s:alias val="$not"/>
    <s:alias val="$logic_not"/>
    <path d="M0,0 L0,20 L20,10 Z" class="cell_$abc$1033$auto$blifparse.cc:397:parse_blif$1037"/>
    <circle cx="23" cy="10" r="3" class="cell_$abc$1033$auto$blifparse.cc:397:parse_blif$1037"/>
    <g s:x="0" s:y="10" s:pid="A"/>
    <g s:x="25" s:y="10" s:pid="Y"/>
  </g>
  <g s:type="and" transform="translate(917,179)" s:width="30" s:height="25" id="cell_$abc$1033$auto$blifparse.cc:397:parse_blif$1038">
    <s:alias val="$and"/>
    <s:alias val="$logic_and"/>
    <s:alias val="$_AND_"/>
    <path d="M0,0 L0,25 L15,25 A15 12.5 0 0 0 15,0 Z" class="cell_$abc$1033$auto$blifparse.cc:397:parse_blif$1038"/>
    <g s:x="0" s:y="5" s:pid="A"/>
    <g s:x="0" s:y="20" s:pid="B"/>
    <g s:x="30" s:y="12.5" s:pid="Y"/>
  </g>
  <g s:type="or" transform="translate(433,681.5)" s:width="30" s:height="25" id="cell_$abc$1033$auto$blifparse.cc:397:parse_blif$1039">
    <s:alias val="$or"/>
    <s:alias val="$logic_or"/>
    <s:alias val="$_OR_"/>
    <path d="M0,25 L0,25 L15,25 A15 12.5 0 0 0 15,0 L0,0" class="cell_$abc$1033$auto$blifparse.cc:397:parse_blif$1039"/>
    <path d="M0,0 A30 25 0 0 1 0,25" class="cell_$abc$1033$auto$blifparse.cc:397:parse_blif$1039"/>
    <g s:x="3" s:y="5" s:pid="A"/>
    <g s:x="3" s:y="20" s:pid="B"/>
    <g s:x="30" s:y="12.5" s:pid="Y"/>
  </g>
  <g s:type="reduce_xor" transform="translate(177.66666666666666,117.5)" s:width="33" s:height="25" id="cell_$abc$1033$auto$blifparse.cc:397:parse_blif$1040">
    <s:alias val="$xor"/>
    <s:alias val="$reduce_xor"/>
    <s:alias val="$_XOR_"/>
    <path d="M3,0 A30 25 0 0 1 3,25 A30 25 0 0 0 33,12.5 A30 25 0 0 0 3,0" class="cell_$abc$1033$auto$blifparse.cc:397:parse_blif$1040"/>
    <path d="M0,0 A30 25 0 0 1 0,25" class="cell_$abc$1033$auto$blifparse.cc:397:parse_blif$1040"/>
    <g s:x="3" s:y="5" s:pid="A"/>
    <g s:x="3" s:y="20" s:pid="B"/>
    <g s:x="33" s:y="12.5" s:pid="Y"/>
  </g>
  <g s:type="reduce_xor" transform="translate(177.66666666666666,247.5)" s:width="33" s:height="25" id="cell_$abc$1033$auto$blifparse.cc:397:parse_blif$1041">
    <s:alias val="$xor"/>
    <s:alias val="$reduce_xor"/>
    <s:alias val="$_XOR_"/>
    <path d="M3,0 A30 25 0 0 1 3,25 A30 25 0 0 0 33,12.5 A30 25 0 0 0 3,0" class="cell_$abc$1033$auto$blifparse.cc:397:parse_blif$1041"/>
    <path d="M0,0 A30 25 0 0 1 0,25" class="cell_$abc$1033$auto$blifparse.cc:397:parse_blif$1041"/>
    <g s:x="3" s:y="5" s:pid="A"/>
    <g s:x="3" s:y="20" s:pid="B"/>
    <g s:x="33" s:y="12.5" s:pid="Y"/>
  </g>
  <g s:type="or" transform="translate(351,240)" s:width="30" s:height="25" id="cell_$abc$1033$auto$blifparse.cc:397:parse_blif$1042">
    <s:alias val="$or"/>
    <s:alias val="$logic_or"/>
    <s:alias val="$_OR_"/>
    <path d="M0,25 L0,25 L15,25 A15 12.5 0 0 0 15,0 L0,0" class="cell_$abc$1033$auto$blifparse.cc:397:parse_blif$1042"/>
    <path d="M0,0 A30 25 0 0 1 0,25" class="cell_$abc$1033$auto$blifparse.cc:397:parse_blif$1042"/>
    <g s:x="3" s:y="5" s:pid="A"/>
    <g s:x="3" s:y="20" s:pid="B"/>
    <g s:x="30" s:y="12.5" s:pid="Y"/>
  </g>
  <g s:type="not" transform="translate(439,242.5)" s:width="30" s:height="20" id="cell_$abc$1033$auto$blifparse.cc:397:parse_blif$1043">
    <s:alias val="$_NOT_"/>
    <s:alias val="$not"/>
    <s:alias val="$logic_not"/>
    <path d="M0,0 L0,20 L20,10 Z" class="cell_$abc$1033$auto$blifparse.cc:397:parse_blif$1043"/>
    <circle cx="23" cy="10" r="3" class="cell_$abc$1033$auto$blifparse.cc:397:parse_blif$1043"/>
    <g s:x="0" s:y="10" s:pid="A"/>
    <g s:x="25" s:y="10" s:pid="Y"/>
  </g>
  <g s:type="reduce_xor" transform="translate(177.66666666666666,377.5)" s:width="33" s:height="25" id="cell_$abc$1033$auto$blifparse.cc:397:parse_blif$1044">
    <s:alias val="$xor"/>
    <s:alias val="$reduce_xor"/>
    <s:alias val="$_XOR_"/>
    <path d="M3,0 A30 25 0 0 1 3,25 A30 25 0 0 0 33,12.5 A30 25 0 0 0 3,0" class="cell_$abc$1033$auto$blifparse.cc:397:parse_blif$1044"/>
    <path d="M0,0 A30 25 0 0 1 0,25" class="cell_$abc$1033$auto$blifparse.cc:397:parse_blif$1044"/>
    <g s:x="3" s:y="5" s:pid="A"/>
    <g s:x="3" s:y="20" s:pid="B"/>
    <g s:x="33" s:y="12.5" s:pid="Y"/>
  </g>
  <g s:type="reduce_xor" transform="translate(177.66666666666666,507.5)" s:width="33" s:height="25" id="cell_$abc$1033$auto$blifparse.cc:397:parse_blif$1045">
    <s:alias val="$xor"/>
    <s:alias val="$reduce_xor"/>
    <s:alias val="$_XOR_"/>
    <path d="M3,0 A30 25 0 0 1 3,25 A30 25 0 0 0 33,12.5 A30 25 0 0 0 3,0" class="cell_$abc$1033$auto$blifparse.cc:397:parse_blif$1045"/>
    <path d="M0,0 A30 25 0 0 1 0,25" class="cell_$abc$1033$auto$blifparse.cc:397:parse_blif$1045"/>
    <g s:x="3" s:y="5" s:pid="A"/>
    <g s:x="3" s:y="20" s:pid="B"/>
    <g s:x="33" s:y="12.5" s:pid="Y"/>
  </g>
  <g s:type="or" transform="translate(351,500)" s:width="30" s:height="25" id="cell_$abc$1033$auto$blifparse.cc:397:parse_blif$1046">
    <s:alias val="$or"/>
    <s:alias val="$logic_or"/>
    <s:alias val="$_OR_"/>
    <path d="M0,25 L0,25 L15,25 A15 12.5 0 0 0 15,0 L0,0" class="cell_$abc$1033$auto$blifparse.cc:397:parse_blif$1046"/>
    <path d="M0,0 A30 25 0 0 1 0,25" class="cell_$abc$1033$auto$blifparse.cc:397:parse_blif$1046"/>
    <g s:x="3" s:y="5" s:pid="A"/>
    <g s:x="3" s:y="20" s:pid="B"/>
    <g s:x="30" s:y="12.5" s:pid="Y"/>
  </g>
  <g s:type="not" transform="translate(439,502.5)" s:width="30" s:height="20" id="cell_$abc$1033$auto$blifparse.cc:397:parse_blif$1047">
    <s:alias val="$_NOT_"/>
    <s:alias val="$not"/>
    <s:alias val="$logic_not"/>
    <path d="M0,0 L0,20 L20,10 Z" class="cell_$abc$1033$auto$blifparse.cc:397:parse_blif$1047"/>
    <circle cx="23" cy="10" r="3" class="cell_$abc$1033$auto$blifparse.cc:397:parse_blif$1047"/>
    <g s:x="0" s:y="10" s:pid="A"/>
    <g s:x="25" s:y="10" s:pid="Y"/>
  </g>
  <g s:type="and" transform="translate(522,492.5)" s:width="30" s:height="25" id="cell_$abc$1033$auto$blifparse.cc:397:parse_blif$1048">
    <s:alias val="$and"/>
    <s:alias val="$logic_and"/>
    <s:alias val="$_AND_"/>
    <path d="M0,0 L0,25 L15,25 A15 12.5 0 0 0 15,0 Z" class="cell_$abc$1033$auto$blifparse.cc:397:parse_blif$1048"/>
    <g s:x="0" s:y="5" s:pid="A"/>
    <g s:x="0" s:y="20" s:pid="B"/>
    <g s:x="30" s:y="12.5" s:pid="Y"/>
  </g>
  <g s:type="or" transform="translate(522,674)" s:width="30" s:height="25" id="cell_$abc$1033$auto$blifparse.cc:397:parse_blif$1049">
    <s:alias val="$or"/>
    <s:alias val="$logic_or"/>
    <s:alias val="$_OR_"/>
    <path d="M0,25 L0,25 L15,25 A15 12.5 0 0 0 15,0 L0,0" class="cell_$abc$1033$auto$blifparse.cc:397:parse_blif$1049"/>
    <path d="M0,0 A30 25 0 0 1 0,25" class="cell_$abc$1033$auto$blifparse.cc:397:parse_blif$1049"/>
    <g s:x="3" s:y="5" s:pid="A"/>
    <g s:x="3" s:y="20" s:pid="B"/>
    <g s:x="30" s:y="12.5" s:pid="Y"/>
  </g>
  <g s:type="or" transform="translate(593,666.5)" s:width="30" s:height="25" id="cell_$abc$1033$auto$blifparse.cc:397:parse_blif$1050">
    <s:alias val="$or"/>
    <s:alias val="$logic_or"/>
    <s:alias val="$_OR_"/>
    <path d="M0,25 L0,25 L15,25 A15 12.5 0 0 0 15,0 L0,0" class="cell_$abc$1033$auto$blifparse.cc:397:parse_blif$1050"/>
    <path d="M0,0 A30 25 0 0 1 0,25" class="cell_$abc$1033$auto$blifparse.cc:397:parse_blif$1050"/>
    <g s:x="3" s:y="5" s:pid="A"/>
    <g s:x="3" s:y="20" s:pid="B"/>
    <g s:x="30" s:y="12.5" s:pid="Y"/>
  </g>
  <g s:type="and" transform="translate(1026.6666666666665,199)" s:width="30" s:height="25" id="cell_$abc$1033$auto$blifparse.cc:397:parse_blif$1051">
    <s:alias val="$and"/>
    <s:alias val="$logic_and"/>
    <s:alias val="$_AND_"/>
    <path d="M0,0 L0,25 L15,25 A15 12.5 0 0 0 15,0 Z" class="cell_$abc$1033$auto$blifparse.cc:397:parse_blif$1051"/>
    <g s:x="0" s:y="5" s:pid="A"/>
    <g s:x="0" s:y="20" s:pid="B"/>
    <g s:x="30" s:y="12.5" s:pid="Y"/>
  </g>
  <g s:type="and" transform="translate(769.6666666666666,126.5)" s:width="30" s:height="25" id="cell_$abc$1033$auto$blifparse.cc:397:parse_blif$1052">
    <s:alias val="$and"/>
    <s:alias val="$logic_and"/>
    <s:alias val="$_AND_"/>
    <path d="M0,0 L0,25 L15,25 A15 12.5 0 0 0 15,0 Z" class="cell_$abc$1033$auto$blifparse.cc:397:parse_blif$1052"/>
    <g s:x="0" s:y="5" s:pid="A"/>
    <g s:x="0" s:y="20" s:pid="B"/>
    <g s:x="30" s:y="12.5" s:pid="Y"/>
  </g>
  <g s:type="or" transform="translate(917,119)" s:width="30" s:height="25" id="cell_$abc$1033$auto$blifparse.cc:397:parse_blif$1053">
    <s:alias val="$or"/>
    <s:alias val="$logic_or"/>
    <s:alias val="$_OR_"/>
    <path d="M0,25 L0,25 L15,25 A15 12.5 0 0 0 15,0 L0,0" class="cell_$abc$1033$auto$blifparse.cc:397:parse_blif$1053"/>
    <path d="M0,0 A30 25 0 0 1 0,25" class="cell_$abc$1033$auto$blifparse.cc:397:parse_blif$1053"/>
    <g s:x="3" s:y="5" s:pid="A"/>
    <g s:x="3" s:y="20" s:pid="B"/>
    <g s:x="30" s:y="12.5" s:pid="Y"/>
  </g>
  <g s:type="and" transform="translate(1026.6666666666665,111.5)" s:width="30" s:height="25" id="cell_$abc$1033$auto$blifparse.cc:397:parse_blif$1054">
    <s:alias val="$and"/>
    <s:alias val="$logic_and"/>
    <s:alias val="$_AND_"/>
    <path d="M0,0 L0,25 L15,25 A15 12.5 0 0 0 15,0 Z" class="cell_$abc$1033$auto$blifparse.cc:397:parse_blif$1054"/>
    <g s:x="0" s:y="5" s:pid="A"/>
    <g s:x="0" s:y="20" s:pid="B"/>
    <g s:x="30" s:y="12.5" s:pid="Y"/>
  </g>
  <g s:type="or" transform="translate(1174,206.5)" s:width="30" s:height="25" id="cell_$abc$1033$auto$blifparse.cc:397:parse_blif$1055">
    <s:alias val="$or"/>
    <s:alias val="$logic_or"/>
    <s:alias val="$_OR_"/>
    <path d="M0,25 L0,25 L15,25 A15 12.5 0 0 0 15,0 L0,0" class="cell_$abc$1033$auto$blifparse.cc:397:parse_blif$1055"/>
    <path d="M0,0 A30 25 0 0 1 0,25" class="cell_$abc$1033$auto$blifparse.cc:397:parse_blif$1055"/>
    <g s:x="3" s:y="5" s:pid="A"/>
    <g s:x="3" s:y="20" s:pid="B"/>
    <g s:x="30" s:y="12.5" s:pid="Y"/>
  </g>
  <g s:type="and" transform="translate(351,1034)" s:width="30" s:height="25" id="cell_$abc$1033$auto$blifparse.cc:397:parse_blif$1056">
    <s:alias val="$and"/>
    <s:alias val="$logic_and"/>
    <s:alias val="$_AND_"/>
    <path d="M0,0 L0,25 L15,25 A15 12.5 0 0 0 15,0 Z" class="cell_$abc$1033$auto$blifparse.cc:397:parse_blif$1056"/>
    <g s:x="0" s:y="5" s:pid="A"/>
    <g s:x="0" s:y="20" s:pid="B"/>
    <g s:x="30" s:y="12.5" s:pid="Y"/>
  </g>
  <g s:type="reduce_xor" transform="translate(592,866)" s:width="33" s:height="25" id="cell_$abc$1033$auto$blifparse.cc:397:parse_blif$1057">
    <s:alias val="$xor"/>
    <s:alias val="$reduce_xor"/>
    <s:alias val="$_XOR_"/>
    <path d="M3,0 A30 25 0 0 1 3,25 A30 25 0 0 0 33,12.5 A30 25 0 0 0 3,0" class="cell_$abc$1033$auto$blifparse.cc:397:parse_blif$1057"/>
    <path d="M0,0 A30 25 0 0 1 0,25" class="cell_$abc$1033$auto$blifparse.cc:397:parse_blif$1057"/>
    <g s:x="3" s:y="5" s:pid="A"/>
    <g s:x="3" s:y="20" s:pid="B"/>
    <g s:x="33" s:y="12.5" s:pid="Y"/>
  </g>
  <g s:type="or" transform="translate(522,923)" s:width="30" s:height="25" id="cell_$abc$1033$auto$blifparse.cc:397:parse_blif$1058">
    <s:alias val="$or"/>
    <s:alias val="$logic_or"/>
    <s:alias val="$_OR_"/>
    <path d="M0,25 L0,25 L15,25 A15 12.5 0 0 0 15,0 L0,0" class="cell_$abc$1033$auto$blifparse.cc:397:parse_blif$1058"/>
    <path d="M0,0 A30 25 0 0 1 0,25" class="cell_$abc$1033$auto$blifparse.cc:397:parse_blif$1058"/>
    <g s:x="3" s:y="5" s:pid="A"/>
    <g s:x="3" s:y="20" s:pid="B"/>
    <g s:x="30" s:y="12.5" s:pid="Y"/>
  </g>
  <g s:type="or" transform="translate(593,735)" s:width="30" s:height="25" id="cell_$abc$1033$auto$blifparse.cc:397:parse_blif$1059">
    <s:alias val="$or"/>
    <s:alias val="$logic_or"/>
    <s:alias val="$_OR_"/>
    <path d="M0,25 L0,25 L15,25 A15 12.5 0 0 0 15,0 L0,0" class="cell_$abc$1033$auto$blifparse.cc:397:parse_blif$1059"/>
    <path d="M0,0 A30 25 0 0 1 0,25" class="cell_$abc$1033$auto$blifparse.cc:397:parse_blif$1059"/>
    <g s:x="3" s:y="5" s:pid="A"/>
    <g s:x="3" s:y="20" s:pid="B"/>
    <g s:x="30" s:y="12.5" s:pid="Y"/>
  </g>
  <g s:type="and" transform="translate(660,727.5)" s:width="30" s:height="25" id="cell_$abc$1033$auto$blifparse.cc:397:parse_blif$1060">
    <s:alias val="$and"/>
    <s:alias val="$logic_and"/>
    <s:alias val="$_AND_"/>
    <path d="M0,0 L0,25 L15,25 A15 12.5 0 0 0 15,0 Z" class="cell_$abc$1033$auto$blifparse.cc:397:parse_blif$1060"/>
    <g s:x="0" s:y="5" s:pid="A"/>
    <g s:x="0" s:y="20" s:pid="B"/>
    <g s:x="30" s:y="12.5" s:pid="Y"/>
  </g>
  <g s:type="and" transform="translate(917,1091)" s:width="30" s:height="25" id="cell_$abc$1033$auto$blifparse.cc:397:parse_blif$1061">
    <s:alias val="$and"/>
    <s:alias val="$logic_and"/>
    <s:alias val="$_AND_"/>
    <path d="M0,0 L0,25 L15,25 A15 12.5 0 0 0 15,0 Z" class="cell_$abc$1033$auto$blifparse.cc:397:parse_blif$1061"/>
    <g s:x="0" s:y="5" s:pid="A"/>
    <g s:x="0" s:y="20" s:pid="B"/>
    <g s:x="30" s:y="12.5" s:pid="Y"/>
  </g>
  <g s:type="mux" transform="translate(1030,1073.5)" s:width="20" s:height="40" id="cell_$abc$1033$auto$blifparse.cc:397:parse_blif$1062">
    <s:alias val="$pmux"/>
    <s:alias val="$mux"/>
    <s:alias val="$_MUX_"/>
    <path d="M0,0 L20,10 L20,30 L0,40 Z" class="cell_$abc$1033$auto$blifparse.cc:397:parse_blif$1062"/>
    <g s:x="0" s:y="10" s:pid="A"/>
    <g s:x="0" s:y="30" s:pid="B"/>
    <g s:x="10" s:y="35" s:pid="S"/>
    <g s:x="20" s:y="20" s:pid="Y"/>
  </g>
  <g s:type="or" transform="translate(1174,1073.5)" s:width="30" s:height="25" id="cell_$abc$1033$auto$blifparse.cc:397:parse_blif$1063">
    <s:alias val="$or"/>
    <s:alias val="$logic_or"/>
    <s:alias val="$_OR_"/>
    <path d="M0,25 L0,25 L15,25 A15 12.5 0 0 0 15,0 L0,0" class="cell_$abc$1033$auto$blifparse.cc:397:parse_blif$1063"/>
    <path d="M0,0 A30 25 0 0 1 0,25" class="cell_$abc$1033$auto$blifparse.cc:397:parse_blif$1063"/>
    <g s:x="3" s:y="5" s:pid="A"/>
    <g s:x="3" s:y="20" s:pid="B"/>
    <g s:x="30" s:y="12.5" s:pid="Y"/>
  </g>
  <g s:type="and" transform="translate(433,988)" s:width="30" s:height="25" id="cell_$abc$1033$auto$blifparse.cc:397:parse_blif$1064">
    <s:alias val="$and"/>
    <s:alias val="$logic_and"/>
    <s:alias val="$_AND_"/>
    <path d="M0,0 L0,25 L15,25 A15 12.5 0 0 0 15,0 Z" class="cell_$abc$1033$auto$blifparse.cc:397:parse_blif$1064"/>
    <g s:x="0" s:y="5" s:pid="A"/>
    <g s:x="0" s:y="20" s:pid="B"/>
    <g s:x="30" s:y="12.5" s:pid="Y"/>
  </g>
  <g s:type="not" transform="translate(522,751)" s:width="30" s:height="20" id="cell_$abc$1033$auto$blifparse.cc:397:parse_blif$1065">
    <s:alias val="$_NOT_"/>
    <s:alias val="$not"/>
    <s:alias val="$logic_not"/>
    <path d="M0,0 L0,20 L20,10 Z" class="cell_$abc$1033$auto$blifparse.cc:397:parse_blif$1065"/>
    <circle cx="23" cy="10" r="3" class="cell_$abc$1033$auto$blifparse.cc:397:parse_blif$1065"/>
    <g s:x="0" s:y="10" s:pid="A"/>
    <g s:x="25" s:y="10" s:pid="Y"/>
  </g>
  <g s:type="or" transform="translate(433,813.5)" s:width="30" s:height="25" id="cell_$abc$1033$auto$blifparse.cc:397:parse_blif$1066">
    <s:alias val="$or"/>
    <s:alias val="$logic_or"/>
    <s:alias val="$_OR_"/>
    <path d="M0,25 L0,25 L15,25 A15 12.5 0 0 0 15,0 L0,0" class="cell_$abc$1033$auto$blifparse.cc:397:parse_blif$1066"/>
    <path d="M0,0 A30 25 0 0 1 0,25" class="cell_$abc$1033$auto$blifparse.cc:397:parse_blif$1066"/>
    <g s:x="3" s:y="5" s:pid="A"/>
    <g s:x="3" s:y="20" s:pid="B"/>
    <g s:x="30" s:y="12.5" s:pid="Y"/>
  </g>
  <g s:type="or" transform="translate(522,806)" s:width="30" s:height="25" id="cell_$abc$1033$auto$blifparse.cc:397:parse_blif$1067">
    <s:alias val="$or"/>
    <s:alias val="$logic_or"/>
    <s:alias val="$_OR_"/>
    <path d="M0,25 L0,25 L15,25 A15 12.5 0 0 0 15,0 L0,0" class="cell_$abc$1033$auto$blifparse.cc:397:parse_blif$1067"/>
    <path d="M0,0 A30 25 0 0 1 0,25" class="cell_$abc$1033$auto$blifparse.cc:397:parse_blif$1067"/>
    <g s:x="3" s:y="5" s:pid="A"/>
    <g s:x="3" s:y="20" s:pid="B"/>
    <g s:x="30" s:y="12.5" s:pid="Y"/>
  </g>
  <g s:type="and" transform="translate(593,798.5)" s:width="30" s:height="25" id="cell_$abc$1033$auto$blifparse.cc:397:parse_blif$1068">
    <s:alias val="$and"/>
    <s:alias val="$logic_and"/>
    <s:alias val="$_AND_"/>
    <path d="M0,0 L0,25 L15,25 A15 12.5 0 0 0 15,0 Z" class="cell_$abc$1033$auto$blifparse.cc:397:parse_blif$1068"/>
    <g s:x="0" s:y="5" s:pid="A"/>
    <g s:x="0" s:y="20" s:pid="B"/>
    <g s:x="30" s:y="12.5" s:pid="Y"/>
  </g>
  <g s:type="and" transform="translate(660,791)" s:width="30" s:height="25" id="cell_$abc$1033$auto$blifparse.cc:397:parse_blif$1069">
    <s:alias val="$and"/>
    <s:alias val="$logic_and"/>
    <s:alias val="$_AND_"/>
    <path d="M0,0 L0,25 L15,25 A15 12.5 0 0 0 15,0 Z" class="cell_$abc$1033$auto$blifparse.cc:397:parse_blif$1069"/>
    <g s:x="0" s:y="5" s:pid="A"/>
    <g s:x="0" s:y="20" s:pid="B"/>
    <g s:x="30" s:y="12.5" s:pid="Y"/>
  </g>
  <g s:type="generic" transform="translate(141,577.5)" s:width="30" s:height="40" id="cell_$auto$ff.cc:337:slice$716">
    <text x="15" y="-4" class="nodelabel cell_$auto$ff.cc:337:slice$716" s:attribute="ref">$_SDFFE_PP0P_</text>
    <rect width="30" height="80" s:generic="body" class="cell_$auto$ff.cc:337:slice$716"/>
    <g transform="translate(0,10)" s:x="0" s:y="10" s:pid="in0" id="port_$auto$ff.cc:337:slice$716~C">
      <text x="-3" y="-4" class="inputPortLabel cell_$auto$ff.cc:337:slice$716">C</text>
    </g>
    <g transform="translate(0,30)" s:x="0" s:y="10" s:pid="in0" id="port_$auto$ff.cc:337:slice$716~D">
      <text x="-3" y="-4" class="inputPortLabel cell_$auto$ff.cc:337:slice$716">D</text>
    </g>
    <g transform="translate(0,50)" s:x="0" s:y="10" s:pid="in0" id="port_$auto$ff.cc:337:slice$716~E">
      <text x="-3" y="-4" class="inputPortLabel cell_$auto$ff.cc:337:slice$716">E</text>
    </g>
    <g transform="translate(0,70)" s:x="0" s:y="10" s:pid="in0" id="port_$auto$ff.cc:337:slice$716~R">
      <text x="-3" y="-4" class="inputPortLabel cell_$auto$ff.cc:337:slice$716">R</text>
    </g>
    <g transform="translate(30,10)" s:x="30" s:y="10" s:pid="out0" id="port_$auto$ff.cc:337:slice$716~Q">
      <text x="5" y="-4" style="fill:#000; stroke:none" class="cell_$auto$ff.cc:337:slice$716">Q</text>
    </g>
  </g>
  <g s:type="generic" transform="translate(732,753)" s:width="30" s:height="40" id="cell_$auto$ff.cc:337:slice$717">
    <text x="15" y="-4" class="nodelabel cell_$auto$ff.cc:337:slice$717" s:attribute="ref">$_SDFFE_PP0P_</text>
    <rect width="30" height="80" s:generic="body" class="cell_$auto$ff.cc:337:slice$717"/>
    <g transform="translate(0,10)" s:x="0" s:y="10" s:pid="in0" id="port_$auto$ff.cc:337:slice$717~C">
      <text x="-3" y="-4" class="inputPortLabel cell_$auto$ff.cc:337:slice$717">C</text>
    </g>
    <g transform="translate(0,30)" s:x="0" s:y="10" s:pid="in0" id="port_$auto$ff.cc:337:slice$717~D">
      <text x="-3" y="-4" class="inputPortLabel cell_$auto$ff.cc:337:slice$717">D</text>
    </g>
    <g transform="translate(0,50)" s:x="0" s:y="10" s:pid="in0" id="port_$auto$ff.cc:337:slice$717~E">
      <text x="-3" y="-4" class="inputPortLabel cell_$auto$ff.cc:337:slice$717">E</text>
    </g>
    <g transform="translate(0,70)" s:x="0" s:y="10" s:pid="in0" id="port_$auto$ff.cc:337:slice$717~R">
      <text x="-3" y="-4" class="inputPortLabel cell_$auto$ff.cc:337:slice$717">R</text>
    </g>
    <g transform="translate(30,10)" s:x="30" s:y="10" s:pid="out0" id="port_$auto$ff.cc:337:slice$717~Q">
      <text x="5" y="-4" style="fill:#000; stroke:none" class="cell_$auto$ff.cc:337:slice$717">Q</text>
    </g>
  </g>
  <g s:type="generic" transform="translate(141,808)" s:width="30" s:height="40" id="cell_$auto$ff.cc:337:slice$718">
    <text x="15" y="-4" class="nodelabel cell_$auto$ff.cc:337:slice$718" s:attribute="ref">$_SDFFE_PP0P_</text>
    <rect width="30" height="80" s:generic="body" class="cell_$auto$ff.cc:337:slice$718"/>
    <g transform="translate(0,10)" s:x="0" s:y="10" s:pid="in0" id="port_$auto$ff.cc:337:slice$718~C">
      <text x="-3" y="-4" class="inputPortLabel cell_$auto$ff.cc:337:slice$718">C</text>
    </g>
    <g transform="translate(0,30)" s:x="0" s:y="10" s:pid="in0" id="port_$auto$ff.cc:337:slice$718~D">
      <text x="-3" y="-4" class="inputPortLabel cell_$auto$ff.cc:337:slice$718">D</text>
    </g>
    <g transform="translate(0,50)" s:x="0" s:y="10" s:pid="in0" id="port_$auto$ff.cc:337:slice$718~E">
      <text x="-3" y="-4" class="inputPortLabel cell_$auto$ff.cc:337:slice$718">E</text>
    </g>
    <g transform="translate(0,70)" s:x="0" s:y="10" s:pid="in0" id="port_$auto$ff.cc:337:slice$718~R">
      <text x="-3" y="-4" class="inputPortLabel cell_$auto$ff.cc:337:slice$718">R</text>
    </g>
    <g transform="translate(30,10)" s:x="30" s:y="10" s:pid="out0" id="port_$auto$ff.cc:337:slice$718~Q">
      <text x="5" y="-4" style="fill:#000; stroke:none" class="cell_$auto$ff.cc:337:slice$718">Q</text>
    </g>
  </g>
  <g s:type="generic" transform="translate(989,1208)" s:width="30" s:height="40" id="cell_$auto$ff.cc:337:slice$719">
    <text x="15" y="-4" class="nodelabel cell_$auto$ff.cc:337:slice$719" s:attribute="ref">$_SDFF_PP0_</text>
    <rect width="30" height="60" s:generic="body" class="cell_$auto$ff.cc:337:slice$719"/>
    <g transform="translate(0,10)" s:x="0" s:y="10" s:pid="in0" id="port_$auto$ff.cc:337:slice$719~C">
      <text x="-3" y="-4" class="inputPortLabel cell_$auto$ff.cc:337:slice$719">C</text>
    </g>
    <g transform="translate(0,30)" s:x="0" s:y="10" s:pid="in0" id="port_$auto$ff.cc:337:slice$719~D">
      <text x="-3" y="-4" class="inputPortLabel cell_$auto$ff.cc:337:slice$719">D</text>
    </g>
    <g transform="translate(0,50)" s:x="0" s:y="10" s:pid="in0" id="port_$auto$ff.cc:337:slice$719~R">
      <text x="-3" y="-4" class="inputPortLabel cell_$auto$ff.cc:337:slice$719">R</text>
    </g>
    <g transform="translate(30,10)" s:x="30" s:y="10" s:pid="out0" id="port_$auto$ff.cc:337:slice$719~Q">
      <text x="5" y="-4" style="fill:#000; stroke:none" class="cell_$auto$ff.cc:337:slice$719">Q</text>
    </g>
  </g>
  <g s:type="inputExt" transform="translate(12,1197.5)" s:width="30" s:height="20" id="cell_clk">
    <text x="15" y="-4" class="nodelabel cell_clk" s:attribute="ref">clk</text>
    <s:alias val="$_inputExt_"/>
    <path d="M0,0 L0,20 L15,20 L30,10 L15,0 Z" class="cell_clk"/>
    <g s:x="28" s:y="10" s:pid="Y"/>
  </g>
  <g s:type="inputExt" transform="translate(12,1262.5)" s:width="30" s:height="20" id="cell_reset">
    <text x="15" y="-4" class="nodelabel cell_reset" s:attribute="ref">reset</text>
    <s:alias val="$_inputExt_"/>
    <path d="M0,0 L0,20 L15,20 L30,10 L15,0 Z" class="cell_reset"/>
    <g s:x="28" s:y="10" s:pid="Y"/>
  </g>
  <g s:type="inputExt" transform="translate(351,640.5)" s:width="30" s:height="20" id="cell_start">
    <text x="15" y="-4" class="nodelabel cell_start" s:attribute="ref">start</text>
    <s:alias val="$_inputExt_"/>
    <path d="M0,0 L0,20 L15,20 L30,10 L15,0 Z" class="cell_start"/>
    <g s:x="28" s:y="10" s:pid="Y"/>
  </g>
  <g s:type="inputExt" transform="translate(421,933)" s:width="30" s:height="20" id="cell_decoded_ret">
    <text x="15" y="-4" class="nodelabel cell_decoded_ret" s:attribute="ref">decoded_ret</text>
    <s:alias val="$_inputExt_"/>
    <path d="M0,0 L0,20 L15,20 L30,10 L15,0 Z" class="cell_decoded_ret"/>
    <g s:x="28" s:y="10" s:pid="Y"/>
  </g>
  <g s:type="inputExt" transform="translate(12,322.5)" s:width="30" s:height="20" id="cell_lsu_state[0]">
    <text x="15" y="-4" class="nodelabel cell_lsu_state[0]" s:attribute="ref">lsu_state[0]</text>
    <s:alias val="$_inputExt_"/>
    <path d="M0,0 L0,20 L15,20 L30,10 L15,0 Z" class="cell_lsu_state[0]"/>
    <g s:x="28" s:y="10" s:pid="Y"/>
  </g>
  <g s:type="inputExt" transform="translate(12,387.5)" s:width="30" s:height="20" id="cell_lsu_state[1]">
    <text x="15" y="-4" class="nodelabel cell_lsu_state[1]" s:attribute="ref">lsu_state[1]</text>
    <s:alias val="$_inputExt_"/>
    <path d="M0,0 L0,20 L15,20 L30,10 L15,0 Z" class="cell_lsu_state[1]"/>
    <g s:x="28" s:y="10" s:pid="Y"/>
  </g>
  <g s:type="inputExt" transform="translate(12,62.5)" s:width="30" s:height="20" id="cell_lsu_state[2]">
    <text x="15" y="-4" class="nodelabel cell_lsu_state[2]" s:attribute="ref">lsu_state[2]</text>
    <s:alias val="$_inputExt_"/>
    <path d="M0,0 L0,20 L15,20 L30,10 L15,0 Z" class="cell_lsu_state[2]"/>
    <g s:x="28" s:y="10" s:pid="Y"/>
  </g>
  <g s:type="inputExt" transform="translate(12,127.5)" s:width="30" s:height="20" id="cell_lsu_state[3]">
    <text x="15" y="-4" class="nodelabel cell_lsu_state[3]" s:attribute="ref">lsu_state[3]</text>
    <s:alias val="$_inputExt_"/>
    <path d="M0,0 L0,20 L15,20 L30,10 L15,0 Z" class="cell_lsu_state[3]"/>
    <g s:x="28" s:y="10" s:pid="Y"/>
  </g>
  <g s:type="inputExt" transform="translate(12,452.5)" s:width="30" s:height="20" id="cell_lsu_state[4]">
    <text x="15" y="-4" class="nodelabel cell_lsu_state[4]" s:attribute="ref">lsu_state[4]</text>
    <s:alias val="$_inputExt_"/>
    <path d="M0,0 L0,20 L15,20 L30,10 L15,0 Z" class="cell_lsu_state[4]"/>
    <g s:x="28" s:y="10" s:pid="Y"/>
  </g>
  <g s:type="inputExt" transform="translate(12,517.5)" s:width="30" s:height="20" id="cell_lsu_state[5]">
    <text x="15" y="-4" class="nodelabel cell_lsu_state[5]" s:attribute="ref">lsu_state[5]</text>
    <s:alias val="$_inputExt_"/>
    <path d="M0,0 L0,20 L15,20 L30,10 L15,0 Z" class="cell_lsu_state[5]"/>
    <g s:x="28" s:y="10" s:pid="Y"/>
  </g>
  <g s:type="inputExt" transform="translate(12,192.5)" s:width="30" s:height="20" id="cell_lsu_state[6]">
    <text x="15" y="-4" class="nodelabel cell_lsu_state[6]" s:attribute="ref">lsu_state[6]</text>
    <s:alias val="$_inputExt_"/>
    <path d="M0,0 L0,20 L15,20 L30,10 L15,0 Z" class="cell_lsu_state[6]"/>
    <g s:x="28" s:y="10" s:pid="Y"/>
  </g>
  <g s:type="inputExt" transform="translate(12,257.5)" s:width="30" s:height="20" id="cell_lsu_state[7]">
    <text x="15" y="-4" class="nodelabel cell_lsu_state[7]" s:attribute="ref">lsu_state[7]</text>
    <s:alias val="$_inputExt_"/>
    <path d="M0,0 L0,20 L15,20 L30,10 L15,0 Z" class="cell_lsu_state[7]"/>
    <g s:x="28" s:y="10" s:pid="Y"/>
  </g>
  <g s:type="outputExt" transform="translate(1174,43)" s:width="30" s:height="20" id="cell_core_state[0]">
    <text x="15" y="-4" class="nodelabel cell_core_state[0]" s:attribute="ref">core_state[0]</text>
    <s:alias val="$_outputExt_"/>
    <path d="M30,0 L30,20 L15,20 L0,10 L15,0 Z" class="cell_core_state[0]"/>
    <g s:x="0" s:y="10" s:pid="A"/>
  </g>
  <g s:type="outputExt" transform="translate(1174,1143.5)" s:width="30" s:height="20" id="cell_core_state[1]">
    <text x="15" y="-4" class="nodelabel cell_core_state[1]" s:attribute="ref">core_state[1]</text>
    <s:alias val="$_outputExt_"/>
    <path d="M30,0 L30,20 L15,20 L0,10 L15,0 Z" class="cell_core_state[1]"/>
    <g s:x="0" s:y="10" s:pid="A"/>
  </g>
  <g s:type="outputExt" transform="translate(1174,1273.5)" s:width="30" s:height="20" id="cell_core_state[2]">
    <text x="15" y="-4" class="nodelabel cell_core_state[2]" s:attribute="ref">core_state[2]</text>
    <s:alias val="$_outputExt_"/>
    <path d="M30,0 L30,20 L15,20 L0,10 L15,0 Z" class="cell_core_state[2]"/>
    <g s:x="0" s:y="10" s:pid="A"/>
  </g>
  <g s:type="outputExt" transform="translate(1174,1208.5)" s:width="30" s:height="20" id="cell_done">
    <text x="15" y="-4" class="nodelabel cell_done" s:attribute="ref">done</text>
    <s:alias val="$_outputExt_"/>
    <path d="M30,0 L30,20 L15,20 L0,10 L15,0 Z" class="cell_done"/>
    <g s:x="0" s:y="10" s:pid="A"/>
  </g>
  <line x1="172" x2="321" y1="818.5" y2="818.5" class="net_16"/>
  <line x1="321" x2="321" y1="818.5" y2="455" class="net_16"/>
  <circle cx="321" cy="818.5" r="2" style="fill:#000" class="net_16"/>
  <circle cx="321" cy="455" r="2" style="fill:#000" class="net_16"/>
  <line x1="321" x2="351" y1="455" y2="455" class="net_16"/>
  <line x1="172" x2="321" y1="818.5" y2="818.5" class="net_16"/>
  <line x1="321" x2="321" y1="818.5" y2="178" class="net_16"/>
  <line x1="321" x2="902" y1="178" y2="178" class="net_16"/>
  <line x1="902" x2="902" y1="178" y2="184" class="net_16"/>
  <line x1="902" x2="917" y1="184" y2="184" class="net_16"/>
  <line x1="172" x2="321" y1="818.5" y2="818.5" class="net_16"/>
  <line x1="321" x2="321" y1="818.5" y2="1164.5" class="net_16"/>
  <line x1="321" x2="1040" y1="1164.5" y2="1164.5" class="net_16"/>
  <circle cx="321" cy="1164.5" r="2" style="fill:#000" class="net_16"/>
  <line x1="1040" x2="1040" y1="1164.5" y2="1108.5" class="net_16"/>
  <line x1="172" x2="321" y1="818.5" y2="818.5" class="net_16"/>
  <line x1="321" x2="321" y1="818.5" y2="993" class="net_16"/>
  <circle cx="321" cy="993" r="2" style="fill:#000" class="net_16"/>
  <line x1="321" x2="433" y1="993" y2="993" class="net_16"/>
  <line x1="172" x2="436" y1="818.5" y2="818.5" class="net_16"/>
  <line x1="172" x2="321" y1="818.5" y2="818.5" class="net_16"/>
  <line x1="321" x2="321" y1="818.5" y2="1283.5" class="net_16"/>
  <line x1="321" x2="1174" y1="1283.5" y2="1283.5" class="net_16"/>
  <line x1="172" x2="311" y1="588" y2="588" class="net_14"/>
  <line x1="311" x2="311" y1="588" y2="74" class="net_14"/>
  <circle cx="311" cy="588" r="2" style="fill:#000" class="net_14"/>
  <line x1="311" x2="917" y1="74" y2="74" class="net_14"/>
  <line x1="172" x2="354" y1="588" y2="588" class="net_14"/>
  <line x1="172" x2="311" y1="588" y2="588" class="net_14"/>
  <line x1="311" x2="311" y1="588" y2="1054" class="net_14"/>
  <line x1="311" x2="351" y1="1054" y2="1054" class="net_14"/>
  <line x1="172" x2="311" y1="588" y2="588" class="net_14"/>
  <line x1="311" x2="311" y1="588" y2="886" class="net_14"/>
  <circle cx="311" cy="886" r="2" style="fill:#000" class="net_14"/>
  <line x1="311" x2="595" y1="886" y2="886" class="net_14"/>
  <line x1="172" x2="311" y1="588" y2="588" class="net_14"/>
  <line x1="311" x2="311" y1="588" y2="912" class="net_14"/>
  <line x1="311" x2="507" y1="912" y2="912" class="net_14"/>
  <line x1="507" x2="507" y1="912" y2="928" class="net_14"/>
  <circle cx="311" cy="912" r="2" style="fill:#000" class="net_14"/>
  <line x1="507" x2="525" y1="928" y2="928" class="net_14"/>
  <line x1="172" x2="311" y1="588" y2="588" class="net_14"/>
  <line x1="311" x2="311" y1="588" y2="74" class="net_14"/>
  <line x1="311" x2="892" y1="74" y2="74" class="net_14"/>
  <line x1="892" x2="892" y1="74" y2="53" class="net_14"/>
  <circle cx="892" cy="74" r="2" style="fill:#000" class="net_14"/>
  <line x1="892" x2="1174" y1="53" y2="53" class="net_14"/>
  <line x1="763" x2="892" y1="763.5" y2="763.5" class="net_15"/>
  <line x1="892" x2="892" y1="763.5" y2="230" class="net_15"/>
  <line x1="892" x2="331" y1="230" y2="230" class="net_15"/>
  <line x1="331" x2="331" y1="230" y2="573" class="net_15"/>
  <line x1="331" x2="354" y1="573" y2="573" class="net_15"/>
  <line x1="763" x2="892" y1="763.5" y2="763.5" class="net_15"/>
  <line x1="892" x2="892" y1="763.5" y2="124" class="net_15"/>
  <line x1="892" x2="920" y1="124" y2="124" class="net_15"/>
  <line x1="763" x2="892" y1="763.5" y2="763.5" class="net_15"/>
  <line x1="892" x2="892" y1="763.5" y2="1069" class="net_15"/>
  <line x1="892" x2="341" y1="1069" y2="1069" class="net_15"/>
  <line x1="341" x2="341" y1="1069" y2="1039" class="net_15"/>
  <circle cx="892" cy="1069" r="2" style="fill:#000" class="net_15"/>
  <line x1="341" x2="351" y1="1039" y2="1039" class="net_15"/>
  <line x1="763" x2="892" y1="763.5" y2="763.5" class="net_15"/>
  <line x1="892" x2="892" y1="763.5" y2="230" class="net_15"/>
  <line x1="892" x2="582" y1="230" y2="230" class="net_15"/>
  <line x1="582" x2="582" y1="230" y2="871" class="net_15"/>
  <circle cx="582" cy="230" r="2" style="fill:#000" class="net_15"/>
  <circle cx="892" cy="230" r="2" style="fill:#000" class="net_15"/>
  <circle cx="892" cy="763.5" r="2" style="fill:#000" class="net_15"/>
  <line x1="582" x2="595" y1="871" y2="871" class="net_15"/>
  <line x1="763" x2="892" y1="763.5" y2="763.5" class="net_15"/>
  <line x1="892" x2="892" y1="763.5" y2="1153.5" class="net_15"/>
  <line x1="892" x2="1174" y1="1153.5" y2="1153.5" class="net_15"/>
  <line x1="381" x2="401" y1="580.5" y2="580.5" class="net_20"/>
  <line x1="401" x2="401" y1="580.5" y2="199" class="net_20"/>
  <circle cx="401" cy="580.5" r="2" style="fill:#000" class="net_20"/>
  <line x1="401" x2="788.5" y1="199" y2="199" class="net_20"/>
  <line x1="381" x2="401" y1="580.5" y2="580.5" class="net_20"/>
  <line x1="401" x2="401" y1="580.5" y2="701.5" class="net_20"/>
  <circle cx="401" cy="701.5" r="2" style="fill:#000" class="net_20"/>
  <line x1="401" x2="436" y1="701.5" y2="701.5" class="net_20"/>
  <line x1="381" x2="401" y1="580.5" y2="580.5" class="net_20"/>
  <line x1="401" x2="401" y1="580.5" y2="802.5" class="net_20"/>
  <line x1="401" x2="507" y1="802.5" y2="802.5" class="net_20"/>
  <line x1="507" x2="507" y1="802.5" y2="811" class="net_20"/>
  <line x1="507" x2="525" y1="811" y2="811" class="net_20"/>
  <line x1="813.5" x2="917" y1="199" y2="199" class="net_21"/>
  <line x1="376" x2="411" y1="455" y2="455" class="net_18"/>
  <line x1="411" x2="411" y1="455" y2="686.5" class="net_18"/>
  <circle cx="411" cy="455" r="2" style="fill:#000" class="net_18"/>
  <circle cx="411" cy="686.5" r="2" style="fill:#000" class="net_18"/>
  <line x1="411" x2="436" y1="686.5" y2="686.5" class="net_18"/>
  <line x1="376" x2="411" y1="455" y2="455" class="net_18"/>
  <line x1="411" x2="411" y1="455" y2="135.5" class="net_18"/>
  <line x1="411" x2="700" y1="135.5" y2="135.5" class="net_18"/>
  <line x1="700" x2="700" y1="135.5" y2="131.5" class="net_18"/>
  <line x1="700" x2="769.6666666666666" y1="131.5" y2="131.5" class="net_18"/>
  <line x1="376" x2="411" y1="455" y2="455" class="net_18"/>
  <line x1="411" x2="411" y1="455" y2="740" class="net_18"/>
  <line x1="411" x2="596" y1="740" y2="740" class="net_18"/>
  <line x1="40" x2="124" y1="72.5" y2="72.5" class="net_8"/>
  <line x1="124" x2="124" y1="72.5" y2="122.5" class="net_8"/>
  <line x1="124" x2="180.66666666666666" y1="122.5" y2="122.5" class="net_8"/>
  <line x1="40" x2="180.66666666666666" y1="137.5" y2="137.5" class="net_9"/>
  <line x1="40" x2="124" y1="202.5" y2="202.5" class="net_12"/>
  <line x1="124" x2="124" y1="202.5" y2="252.5" class="net_12"/>
  <line x1="124" x2="180.66666666666666" y1="252.5" y2="252.5" class="net_12"/>
  <line x1="40" x2="180.66666666666666" y1="267.5" y2="267.5" class="net_13"/>
  <line x1="210.66666666666666" x2="341" y1="130" y2="130" class="net_24"/>
  <line x1="341" x2="341" y1="130" y2="245" class="net_24"/>
  <line x1="341" x2="354" y1="245" y2="245" class="net_24"/>
  <line x1="210.66666666666666" x2="354" y1="260" y2="260" class="net_25"/>
  <line x1="381" x2="439" y1="252.5" y2="252.5" class="net_26"/>
  <line x1="40" x2="124" y1="332.5" y2="332.5" class="net_6"/>
  <line x1="124" x2="124" y1="332.5" y2="382.5" class="net_6"/>
  <line x1="124" x2="180.66666666666666" y1="382.5" y2="382.5" class="net_6"/>
  <line x1="40" x2="180.66666666666666" y1="397.5" y2="397.5" class="net_7"/>
  <line x1="40" x2="124" y1="462.5" y2="462.5" class="net_10"/>
  <line x1="124" x2="124" y1="462.5" y2="512.5" class="net_10"/>
  <line x1="124" x2="180.66666666666666" y1="512.5" y2="512.5" class="net_10"/>
  <line x1="40" x2="180.66666666666666" y1="527.5" y2="527.5" class="net_11"/>
  <line x1="210.66666666666666" x2="301" y1="390" y2="390" class="net_28"/>
  <line x1="301" x2="301" y1="390" y2="505" class="net_28"/>
  <line x1="301" x2="354" y1="505" y2="505" class="net_28"/>
  <line x1="210.66666666666666" x2="354" y1="520" y2="520" class="net_29"/>
  <line x1="381" x2="439" y1="512.5" y2="512.5" class="net_30"/>
  <line x1="464" x2="497" y1="252.5" y2="252.5" class="net_27"/>
  <line x1="497" x2="497" y1="252.5" y2="497.5" class="net_27"/>
  <line x1="497" x2="522" y1="497.5" y2="497.5" class="net_27"/>
  <line x1="464" x2="522" y1="512.5" y2="512.5" class="net_31"/>
  <line x1="40" x2="124" y1="1272.5" y2="1272.5" class="net_3"/>
  <line x1="124" x2="124" y1="1272.5" y2="670.5" class="net_3"/>
  <line x1="124" x2="497" y1="670.5" y2="670.5" class="net_3"/>
  <line x1="497" x2="497" y1="670.5" y2="679" class="net_3"/>
  <circle cx="124" cy="1272.5" r="2" style="fill:#000" class="net_3"/>
  <circle cx="124" cy="670.5" r="2" style="fill:#000" class="net_3"/>
  <line x1="497" x2="525" y1="679" y2="679" class="net_3"/>
  <line x1="40" x2="124" y1="1272.5" y2="1272.5" class="net_3"/>
  <line x1="124" x2="124" y1="1272.5" y2="648" class="net_3"/>
  <line x1="124" x2="141" y1="648" y2="648" class="net_3"/>
  <line x1="40" x2="124" y1="1272.5" y2="1272.5" class="net_3"/>
  <line x1="124" x2="124" y1="1272.5" y2="1023" class="net_3"/>
  <line x1="124" x2="710" y1="1023" y2="1023" class="net_3"/>
  <line x1="710" x2="710" y1="1023" y2="823.5" class="net_3"/>
  <circle cx="124" cy="1023" r="2" style="fill:#000" class="net_3"/>
  <line x1="710" x2="732" y1="823.5" y2="823.5" class="net_3"/>
  <line x1="40" x2="124" y1="1272.5" y2="1272.5" class="net_3"/>
  <line x1="124" x2="124" y1="1272.5" y2="878.5" class="net_3"/>
  <circle cx="124" cy="878.5" r="2" style="fill:#000" class="net_3"/>
  <line x1="124" x2="141" y1="878.5" y2="878.5" class="net_3"/>
  <line x1="40" x2="957" y1="1272.5" y2="1272.5" class="net_3"/>
  <line x1="957" x2="957" y1="1272.5" y2="1258.5" class="net_3"/>
  <line x1="957" x2="989" y1="1258.5" y2="1258.5" class="net_3"/>
  <line x1="463" x2="525" y1="694" y2="694" class="net_23"/>
  <line x1="552" x2="562" y1="505" y2="505" class="net_32"/>
  <line x1="562" x2="562" y1="505" y2="671.5" class="net_32"/>
  <line x1="562" x2="596" y1="671.5" y2="671.5" class="net_32"/>
  <line x1="552" x2="596" y1="686.5" y2="686.5" class="net_33"/>
  <line x1="947" x2="957" y1="191.5" y2="191.5" class="net_22"/>
  <line x1="957" x2="957" y1="191.5" y2="204" class="net_22"/>
  <line x1="957" x2="1026.6666666666665" y1="204" y2="204" class="net_22"/>
  <line x1="623" x2="645" y1="679" y2="679" class="net_34"/>
  <line x1="645" x2="645" y1="679" y2="219" class="net_34"/>
  <circle cx="645" cy="679" r="2" style="fill:#000" class="net_34"/>
  <line x1="645" x2="1026.6666666666665" y1="219" y2="219" class="net_34"/>
  <line x1="623" x2="645" y1="679" y2="679" class="net_34"/>
  <line x1="645" x2="645" y1="679" y2="796" class="net_34"/>
  <line x1="645" x2="660" y1="796" y2="796" class="net_34"/>
  <line x1="379" x2="391" y1="650.5" y2="650.5" class="net_4"/>
  <line x1="391" x2="391" y1="650.5" y2="146.5" class="net_4"/>
  <circle cx="391" cy="650.5" r="2" style="fill:#000" class="net_4"/>
  <line x1="391" x2="769.6666666666666" y1="146.5" y2="146.5" class="net_4"/>
  <line x1="379" x2="391" y1="650.5" y2="650.5" class="net_4"/>
  <line x1="391" x2="391" y1="650.5" y2="833.5" class="net_4"/>
  <line x1="391" x2="436" y1="833.5" y2="833.5" class="net_4"/>
  <line x1="799.6666666666666" x2="920" y1="139" y2="139" class="net_36"/>
  <line x1="942" x2="957" y1="74" y2="74" class="net_19"/>
  <line x1="957" x2="957" y1="74" y2="116.5" class="net_19"/>
  <line x1="957" x2="1026.6666666666665" y1="116.5" y2="116.5" class="net_19"/>
  <line x1="947" x2="1026.6666666666665" y1="131.5" y2="131.5" class="net_37"/>
  <line x1="1056.6666666666665" x2="1177" y1="211.5" y2="211.5" class="net_35"/>
  <line x1="1056.6666666666665" x2="1149" y1="211.5" y2="211.5" class="net_35"/>
  <line x1="1149" x2="1149" y1="211.5" y2="1078.5" class="net_35"/>
  <circle cx="1149" cy="211.5" r="2" style="fill:#000" class="net_35"/>
  <line x1="1149" x2="1177" y1="1078.5" y2="1078.5" class="net_35"/>
  <line x1="1056.6666666666665" x2="1159" y1="124" y2="124" class="net_38"/>
  <line x1="1159" x2="1159" y1="124" y2="226.5" class="net_38"/>
  <line x1="1159" x2="1177" y1="226.5" y2="226.5" class="net_38"/>
  <line x1="449" x2="525" y1="943" y2="943" class="net_5"/>
  <line x1="552" x2="562" y1="935.5" y2="935.5" class="net_42"/>
  <line x1="562" x2="562" y1="935.5" y2="755" class="net_42"/>
  <circle cx="562" cy="935.5" r="2" style="fill:#000" class="net_42"/>
  <line x1="562" x2="596" y1="755" y2="755" class="net_42"/>
  <line x1="552" x2="562" y1="935.5" y2="935.5" class="net_42"/>
  <line x1="562" x2="562" y1="935.5" y2="1111" class="net_42"/>
  <line x1="562" x2="917" y1="1111" y2="1111" class="net_42"/>
  <line x1="625" x2="635" y1="878.5" y2="878.5" class="net_41"/>
  <line x1="635" x2="635" y1="878.5" y2="732.5" class="net_41"/>
  <circle cx="635" cy="878.5" r="2" style="fill:#000" class="net_41"/>
  <line x1="635" x2="660" y1="732.5" y2="732.5" class="net_41"/>
  <line x1="625" x2="635" y1="878.5" y2="878.5" class="net_41"/>
  <line x1="635" x2="635" y1="878.5" y2="1096" class="net_41"/>
  <line x1="635" x2="917" y1="1096" y2="1096" class="net_41"/>
  <line x1="623" x2="660" y1="747.5" y2="747.5" class="net_43"/>
  <line x1="381" x2="391" y1="1046.5" y2="1046.5" class="net_40"/>
  <line x1="391" x2="391" y1="1046.5" y2="1080" class="net_40"/>
  <line x1="391" x2="957" y1="1080" y2="1080" class="net_40"/>
  <line x1="957" x2="957" y1="1080" y2="1083.5" class="net_40"/>
  <circle cx="391" cy="1046.5" r="2" style="fill:#000" class="net_40"/>
  <line x1="957" x2="1030" y1="1083.5" y2="1083.5" class="net_40"/>
  <line x1="381" x2="391" y1="1046.5" y2="1046.5" class="net_40"/>
  <line x1="391" x2="391" y1="1046.5" y2="1008" class="net_40"/>
  <line x1="391" x2="433" y1="1008" y2="1008" class="net_40"/>
  <line x1="947" x2="1030" y1="1103.5" y2="1103.5" class="net_45"/>
  <line x1="1050" x2="1177" y1="1093.5" y2="1093.5" class="net_46"/>
  <line x1="463" x2="497" y1="1000.5" y2="1000.5" class="net_48"/>
  <line x1="497" x2="497" y1="1000.5" y2="761" class="net_48"/>
  <circle cx="497" cy="1000.5" r="2" style="fill:#000" class="net_48"/>
  <line x1="497" x2="522" y1="761" y2="761" class="net_48"/>
  <line x1="463" x2="497" y1="1000.5" y2="1000.5" class="net_48"/>
  <line x1="497" x2="497" y1="1000.5" y2="1238.5" class="net_48"/>
  <line x1="497" x2="989" y1="1238.5" y2="1238.5" class="net_48"/>
  <line x1="463" x2="525" y1="826" y2="826" class="net_50"/>
  <line x1="547" x2="572" y1="761" y2="761" class="net_49"/>
  <line x1="572" x2="572" y1="761" y2="803.5" class="net_49"/>
  <line x1="572" x2="593" y1="803.5" y2="803.5" class="net_49"/>
  <line x1="552" x2="593" y1="818.5" y2="818.5" class="net_51"/>
  <line x1="623" x2="660" y1="811" y2="811" class="net_52"/>
  <line x1="40" x2="104" y1="1207.5" y2="1207.5" class="net_2"/>
  <line x1="104" x2="104" y1="1207.5" y2="588" class="net_2"/>
  <circle cx="104" cy="1207.5" r="2" style="fill:#000" class="net_2"/>
  <line x1="104" x2="141" y1="588" y2="588" class="net_2"/>
  <line x1="40" x2="104" y1="1207.5" y2="1207.5" class="net_2"/>
  <line x1="104" x2="104" y1="1207.5" y2="716.5" class="net_2"/>
  <line x1="104" x2="710" y1="716.5" y2="716.5" class="net_2"/>
  <line x1="710" x2="710" y1="716.5" y2="763.5" class="net_2"/>
  <circle cx="104" cy="716.5" r="2" style="fill:#000" class="net_2"/>
  <line x1="710" x2="732" y1="763.5" y2="763.5" class="net_2"/>
  <line x1="40" x2="104" y1="1207.5" y2="1207.5" class="net_2"/>
  <line x1="104" x2="104" y1="1207.5" y2="818.5" class="net_2"/>
  <circle cx="104" cy="818.5" r="2" style="fill:#000" class="net_2"/>
  <line x1="104" x2="141" y1="818.5" y2="818.5" class="net_2"/>
  <line x1="40" x2="957" y1="1207.5" y2="1207.5" class="net_2"/>
  <line x1="957" x2="957" y1="1207.5" y2="1218.5" class="net_2"/>
  <line x1="957" x2="989" y1="1218.5" y2="1218.5" class="net_2"/>
  <line x1="1204" x2="1262" y1="219" y2="219" class="net_39"/>
  <line x1="1262" x2="1262" y1="219" y2="23" class="net_39"/>
  <line x1="1262" x2="114" y1="23" y2="23" class="net_39"/>
  <line x1="114" x2="114" y1="23" y2="608" class="net_39"/>
  <line x1="114" x2="141" y1="608" y2="608" class="net_39"/>
  <line x1="690" x2="700" y1="803.5" y2="803.5" class="net_53"/>
  <line x1="700" x2="700" y1="803.5" y2="901" class="net_53"/>
  <line x1="700" x2="114" y1="901" y2="901" class="net_53"/>
  <line x1="114" x2="114" y1="901" y2="628" class="net_53"/>
  <line x1="114" x2="141" y1="628" y2="628" class="net_53"/>
  <line x1="690" x2="732" y1="803.5" y2="803.5" class="net_53"/>
  <line x1="690" x2="700" y1="803.5" y2="803.5" class="net_53"/>
  <line x1="700" x2="700" y1="803.5" y2="901" class="net_53"/>
  <line x1="700" x2="114" y1="901" y2="901" class="net_53"/>
  <line x1="114" x2="114" y1="901" y2="858.5" class="net_53"/>
  <circle cx="114" cy="858.5" r="2" style="fill:#000" class="net_53"/>
  <circle cx="700" cy="803.5" r="2" style="fill:#000" class="net_53"/>
  <line x1="114" x2="141" y1="858.5" y2="858.5" class="net_53"/>
  <line x1="690" x2="700" y1="740" y2="740" class="net_44"/>
  <line x1="700" x2="700" y1="740" y2="783.5" class="net_44"/>
  <line x1="700" x2="732" y1="783.5" y2="783.5" class="net_44"/>
  <line x1="1204" x2="1272" y1="1086" y2="1086" class="net_47"/>
  <line x1="1272" x2="1272" y1="1086" y2="12" class="net_47"/>
  <line x1="1272" x2="94" y1="12" y2="12" class="net_47"/>
  <line x1="94" x2="94" y1="12" y2="838.5" class="net_47"/>
  <line x1="94" x2="141" y1="838.5" y2="838.5" class="net_47"/>
  <line x1="1020" x2="1174" y1="1218.5" y2="1218.5" class="net_17"/>
</svg>
